<svg width="49" height="54" viewBox="0 0 49 54" fill="none" xmlns="http://www.w3.org/2000/svg">
<path fill-rule="evenodd" clip-rule="evenodd" d="M3.49999 47.1282C2.14899 47.1282 1.04999 46.2921 1.04999 45.2643V22.3659C1.04999 21.3381 2.14899 20.5021 3.49999 20.5021H45.5C46.851 20.5021 47.95 21.3381 47.95 22.3659V45.2643C47.95 46.2921 46.851 47.1282 45.5 47.1282H3.49999Z" fill="#EE5060"/>
<path fill-rule="evenodd" clip-rule="evenodd" d="M5.59998 47.9263C4.90774 47.9263 4.23105 48.0825 3.65548 48.3751C3.07991 48.6676 2.63131 49.0835 2.3664 49.57C2.10149 50.0565 2.03218 50.5919 2.16723 51.1084C2.30228 51.6249 2.63562 52.0993 3.1251 52.4717C3.61459 52.8441 4.23823 53.0977 4.91716 53.2004C5.59609 53.3032 6.29983 53.2504 6.93937 53.0489C7.57891 52.8474 8.12554 52.5061 8.51012 52.0682C8.8947 51.6304 9.09998 51.1156 9.09998 50.589V47.9263H5.59998Z" fill="#2C2D32"/>
<path d="M5.60001 52.1875C6.75981 52.1875 7.70001 51.4722 7.70001 50.5898C7.70001 49.7073 6.75981 48.992 5.60001 48.992C4.4402 48.992 3.5 49.7073 3.5 50.5898C3.5 51.4722 4.4402 52.1875 5.60001 52.1875Z" fill="#495E74"/>
<path fill-rule="evenodd" clip-rule="evenodd" d="M43.4 47.9263C44.0923 47.9263 44.769 48.0825 45.3445 48.3751C45.9201 48.6676 46.3687 49.0835 46.6336 49.57C46.8985 50.0565 46.9678 50.5919 46.8328 51.1084C46.6977 51.6249 46.3644 52.0993 45.8749 52.4717C45.3854 52.8441 44.7618 53.0977 44.0828 53.2004C43.4039 53.3032 42.7002 53.2504 42.0606 53.0489C41.4211 52.8474 40.8745 52.5061 40.4899 52.0682C40.1053 51.6304 39.9 51.1156 39.9 50.589V47.9263H43.4Z" fill="#2C2D32"/>
<path d="M43.4 52.1875C44.5598 52.1875 45.5 51.4722 45.5 50.5898C45.5 49.7073 44.5598 48.992 43.4 48.992C42.2402 48.992 41.3 49.7073 41.3 50.5898C41.3 51.4722 42.2402 52.1875 43.4 52.1875Z" fill="#495E74"/>
<path fill-rule="evenodd" clip-rule="evenodd" d="M33.6 19.7033V3.72765C33.6 3.30395 33.3787 2.89761 32.9849 2.598C32.5911 2.2984 32.0569 2.13009 31.5 2.13009H17.5C16.943 2.13009 16.4089 2.2984 16.0151 2.598C15.6212 2.89761 15.4 3.30395 15.4 3.72765V19.7033H12.6V2.66261C12.6 1.95644 12.9687 1.2792 13.6251 0.77986C14.2815 0.280524 15.1717 0 16.1 0L32.9 0C33.8282 0 34.7185 0.280524 35.3748 0.77986C36.0312 1.2792 36.4 1.95644 36.4 2.66261V19.7033H33.6Z" fill="#495E74"/>
<path fill-rule="evenodd" clip-rule="evenodd" d="M36.3706 3.19516V2.44217C36.2215 1.07677 34.734 0 32.9 0H16.1C15.1717 0 14.2815 0.280526 13.6251 0.779867C12.9687 1.27921 12.6 1.95646 12.6 2.66263V4.79274C12.6 5.07521 12.7475 5.34611 13.01 5.54584C13.2726 5.74558 13.6287 5.85779 14 5.85779C14.3713 5.85779 14.7274 5.74558 14.9899 5.54584C15.2525 5.34611 15.4 5.07521 15.4 4.79274V3.72768C15.4 3.30398 15.6212 2.89763 16.0151 2.59802C16.4089 2.29842 16.943 2.1301 17.5 2.1301H31.5C32.0569 2.1301 32.5911 2.29842 32.9849 2.59802C33.3787 2.89763 33.6 3.30398 33.6 3.72768V4.79274C33.6 5.07521 33.7475 5.34611 34.01 5.54584C34.2726 5.74558 34.6287 5.85779 35 5.85779C35.3713 5.85779 35.7274 5.74558 35.9899 5.54584C36.2525 5.34611 36.4 5.07521 36.4 4.79274V3.19516H36.3706Z" fill="#2C2D32"/>
<path fill-rule="evenodd" clip-rule="evenodd" d="M33.842 20H39.4546L43.6126 23.1632L30.9643 32.7853L24 27.4872L33.842 20Z" fill="#EBECED"/>
<path fill-rule="evenodd" clip-rule="evenodd" d="M12.6 19.7033H15.4V44.7319H12.6V19.7033ZM33.6 19.7033H36.4V44.7319H33.6V19.7033Z" fill="#B25A59"/>
<path fill-rule="evenodd" clip-rule="evenodd" d="M15.4 32.4838H12.6C12.2287 32.4838 11.8726 32.596 11.6101 32.7958C11.3475 32.9956 11.2 33.2665 11.2 33.549V35.6793C11.2 35.9618 11.3475 36.2328 11.6101 36.4325C11.8726 36.6323 12.2287 36.7445 12.6 36.7445H15.4C15.7713 36.7445 16.1274 36.6323 16.3899 36.4325C16.6525 36.2328 16.8 35.9618 16.8 35.6793V33.549C16.8 33.2665 16.6525 32.9956 16.3899 32.7958C16.1274 32.596 15.7713 32.4838 15.4 32.4838ZM15.4 35.6793H12.6V33.549H15.4V35.6793Z" fill="#F0C419"/>
<path fill-rule="evenodd" clip-rule="evenodd" d="M35 42.6017L33.6 41.5367V47.9269H36.4V41.5367L35 42.6017ZM12.6 41.5367V47.9269H15.4V41.5367L14 42.6017L12.6 41.5367ZM14 32.4838C14.1856 32.4838 14.3637 32.4277 14.4949 32.3279C14.6262 32.228 14.7 32.0925 14.7 31.9513C14.7 31.8101 14.6262 31.6746 14.4949 31.5748C14.3637 31.4749 14.1856 31.4188 14 31.4188C13.8143 31.4188 13.6363 31.4749 13.505 31.5748C13.3737 31.6746 13.3 31.8101 13.3 31.9513C13.3 32.0925 13.3737 32.228 13.505 32.3279C13.6363 32.4277 13.8143 32.4838 14 32.4838ZM14 29.8212C14.1856 29.8212 14.3637 29.7651 14.4949 29.6653C14.6262 29.5654 14.7 29.4299 14.7 29.2887C14.7 29.1475 14.6262 29.012 14.4949 28.9122C14.3637 28.8123 14.1856 28.7562 14 28.7562C13.8143 28.7562 13.6363 28.8123 13.505 28.9122C13.3737 29.012 13.3 29.1475 13.3 29.2887C13.3 29.4299 13.3737 29.5654 13.505 29.6653C13.6363 29.7651 13.8143 29.8212 14 29.8212ZM14 27.1586C14.1856 27.1586 14.3637 27.1025 14.4949 27.0026C14.6262 26.9028 14.7 26.7673 14.7 26.6261C14.7 26.4849 14.6262 26.3494 14.4949 26.2495C14.3637 26.1497 14.1856 26.0936 14 26.0936C13.8143 26.0936 13.6363 26.1497 13.505 26.2495C13.3737 26.3494 13.3 26.4849 13.3 26.6261C13.3 26.7673 13.3737 26.9028 13.505 27.0026C13.6363 27.1025 13.8143 27.1586 14 27.1586ZM14 24.496C14.1856 24.496 14.3637 24.4399 14.4949 24.34C14.6262 24.2402 14.7 24.1047 14.7 23.9635C14.7 23.8223 14.6262 23.6868 14.4949 23.5869C14.3637 23.4871 14.1856 23.431 14 23.431C13.8143 23.431 13.6363 23.4871 13.505 23.5869C13.3737 23.6868 13.3 23.8223 13.3 23.9635C13.3 24.1047 13.3737 24.2402 13.505 24.34C13.6363 24.4399 13.8143 24.496 14 24.496ZM35 32.4838C35.1856 32.4838 35.3637 32.4277 35.4949 32.3279C35.6262 32.228 35.7 32.0925 35.7 31.9513C35.7 31.8101 35.6262 31.6746 35.4949 31.5748C35.3637 31.4749 35.1856 31.4188 35 31.4188C34.8143 31.4188 34.6363 31.4749 34.505 31.5748C34.3737 31.6746 34.3 31.8101 34.3 31.9513C34.3 32.0925 34.3737 32.228 34.505 32.3279C34.6363 32.4277 34.8143 32.4838 35 32.4838ZM35 29.8212C35.1856 29.8212 35.3637 29.7651 35.4949 29.6653C35.6262 29.5654 35.7 29.4299 35.7 29.2887C35.7 29.1475 35.6262 29.012 35.4949 28.9122C35.3637 28.8123 35.1856 28.7562 35 28.7562C34.8143 28.7562 34.6363 28.8123 34.505 28.9122C34.3737 29.012 34.3 29.1475 34.3 29.2887C34.3 29.4299 34.3737 29.5654 34.505 29.6653C34.6363 29.7651 34.8143 29.8212 35 29.8212ZM35 27.1586C35.1856 27.1586 35.3637 27.1025 35.4949 27.0026C35.6262 26.9028 35.7 26.7673 35.7 26.6261C35.7 26.4849 35.6262 26.3494 35.4949 26.2495C35.3637 26.1497 35.1856 26.0936 35 26.0936C34.8143 26.0936 34.6363 26.1497 34.505 26.2495C34.3737 26.3494 34.3 26.4849 34.3 26.6261C34.3 26.7673 34.3737 26.9028 34.505 27.0026C34.6363 27.1025 34.8143 27.1586 35 27.1586ZM35 24.496C35.1856 24.496 35.3637 24.4399 35.4949 24.34C35.6262 24.2402 35.7 24.1047 35.7 23.9635C35.7 23.8223 35.6262 23.6868 35.4949 23.5869C35.3637 23.4871 35.1856 23.431 35 23.431C34.8143 23.431 34.6363 23.4871 34.505 23.5869C34.3737 23.6868 34.3 23.8223 34.3 23.9635C34.3 24.1047 34.3737 24.2402 34.505 24.34C34.6363 24.4399 34.8143 24.496 35 24.496ZM14 35.1464C14.1856 35.1464 14.3637 35.0903 14.4949 34.9905C14.6262 34.8906 14.7 34.7551 14.7 34.6139C14.7 34.4727 14.6262 34.3372 14.4949 34.2374C14.3637 34.1375 14.1856 34.0814 14 34.0814C13.8143 34.0814 13.6363 34.1375 13.505 34.2374C13.3737 34.3372 13.3 34.4727 13.3 34.6139C13.3 34.7551 13.3737 34.8906 13.505 34.9905C13.6363 35.0903 13.8143 35.1464 14 35.1464ZM35 35.1464C35.1856 35.1464 35.3637 35.0903 35.4949 34.9905C35.6262 34.8906 35.7 34.7551 35.7 34.6139C35.7 34.4727 35.6262 34.3372 35.4949 34.2374C35.3637 34.1375 35.1856 34.0814 35 34.0814C34.8143 34.0814 34.6363 34.1375 34.505 34.2374C34.3737 34.3372 34.3 34.4727 34.3 34.6139C34.3 34.7551 34.3737 34.8906 34.505 34.9905C34.6363 35.0903 34.8143 35.1464 35 35.1464Z" fill="#90241D"/>
<path fill-rule="evenodd" clip-rule="evenodd" d="M15.4 33.549V35.6793H12.6L11.6102 36.4324C11.8636 36.6252 12.2136 36.7445 12.6 36.7445H15.4C15.7713 36.7445 16.1274 36.6323 16.39 36.4325C16.6525 36.2328 16.8 35.9618 16.8 35.6793V33.549C16.8 33.255 16.6432 32.9887 16.3898 32.7959L15.4 33.549Z" fill="#FCF062"/>
<path fill-rule="evenodd" clip-rule="evenodd" d="M36.4 32.4838H33.6C33.2287 32.4838 32.8726 32.596 32.6101 32.7958C32.3475 32.9956 32.2 33.2665 32.2 33.549V35.6793C32.2 35.9618 32.3475 36.2328 32.6101 36.4325C32.8726 36.6323 33.2287 36.7445 33.6 36.7445H36.4C36.7713 36.7445 37.1274 36.6323 37.3899 36.4325C37.6525 36.2328 37.8 35.9618 37.8 35.6793V33.549C37.8 33.2665 37.6525 32.9956 37.3899 32.7958C37.1274 32.596 36.7713 32.4838 36.4 32.4838ZM36.4 35.6793H33.6V33.549H36.4V35.6793Z" fill="#F0C419"/>
<path fill-rule="evenodd" clip-rule="evenodd" d="M36.4 33.549V35.6793H33.6L32.6102 36.4324C32.8636 36.6252 33.2136 36.7445 33.6 36.7445H36.4C36.7713 36.7445 37.1274 36.6323 37.39 36.4325C37.6525 36.2328 37.8 35.9618 37.8 35.6793V33.549C37.8 33.255 37.6432 32.9887 37.3898 32.7959L36.4 33.549Z" fill="#FCF062"/>
<path d="M45.5 21.3009C46.2721 21.3009 46.9 21.7785 46.9 22.3659V45.2643C46.9 45.8517 46.2721 46.3294 45.5 46.3294H3.5C2.7279 46.3294 2.1 45.8517 2.1 45.2643V22.3659C2.1 21.7785 2.7279 21.3009 3.5 21.3009H45.5ZM45.5 19.7033H3.5C2.57174 19.7033 1.6815 19.9838 1.02513 20.4832C0.368749 20.9825 0 21.6597 0 22.3659V45.2643C0 45.9705 0.368749 46.6477 1.02513 47.1471C1.6815 47.6464 2.57174 47.9269 3.5 47.9269H45.5C46.4283 47.9269 47.3185 47.6464 47.9749 47.1471C48.6313 46.6477 49 45.9705 49 45.2643V22.3659C49 21.6597 48.6313 20.9825 47.9749 20.4832C47.3185 19.9838 46.4283 19.7033 45.5 19.7033Z" fill="#B25A59"/>
</svg>
